<svg xmlns="http://www.w3.org/2000/svg" width="64" height="64" viewBox="0 0 64 64"><path d="M62 51h-1v2h3v-3h-2zM55 51h4v2h-4zM30 51h4v2h-4zM11 51h4v2h-4zM36 51h4v2h-4zM42 51h4v2h-4zM24 51h4v2h-4zM49 51h4v2h-4zM17 51h5v2h-5zM5 51h4v2H5zM3 51H2v-1H0v3h3zM0 44h2v4H0zM0 39h2v3H0zM0 27h2v4H0zM0 33h2v4H0zM0 22h2v3H0zM0 16h2v4H0zM2 13h1v-2H0v3h2zM55 11h4v2h-4zM24 11h4v2h-4zM49 11h4v2h-4zM5 11h4v2H5zM11 11h4v2h-4zM17 11h5v2h-5zM30 11h4v2h-4zM42 11h4v2h-4zM36 11h4v2h-4zM61 13h1v1h2v-3h-3zM62 22h2v3h-2zM62 33h2v4h-2zM62 39h2v3h-2zM62 44h2v4h-2zM62 16h2v4h-2zM62 27h2v4h-2z"/></svg>